<svg width="134" height="60" viewBox="0 0 134 60" fill="none" xmlns="http://www.w3.org/2000/svg">
<g clip-path="url(#clip0_25_1233)">
<path fill-rule="evenodd" clip-rule="evenodd" d="M37.4071 34.6002C37.8395 34.8805 38.2957 34.0549 38.5986 33.7055C39.1323 33.0893 40.9876 30.9412 41.4917 30.4972C42.0974 29.9638 43.8177 27.9781 44.682 27.1081L48.3933 23.1853C48.5662 23.0095 48.677 22.8477 48.8476 22.662L53.2733 17.905C55.3401 15.8029 57.5285 13.2334 60.5542 13.4683C61.2515 13.5225 61.5335 13.6495 62.0055 13.9799C64.4848 15.7156 65.6078 20.1879 66.0866 23.4123C66.2317 24.3893 66.1227 25.5007 66.2581 26.532C66.4658 28.1152 66.2127 33.7572 66.1505 35.2117C66.0218 38.2308 65.0873 42.9108 64.3258 45.7651C64.1489 46.4277 63.9831 46.9852 63.7619 47.6461L61.9866 51.8827L59.5145 55.4026C58.3895 56.6525 56.7322 57.9106 55.0313 57.9106C53.7357 57.9106 52.7764 57.6036 51.8533 56.7772C51.133 56.1374 50.51 55.3842 50.0063 54.5438C49.5402 53.7643 49.7262 53.2763 48.5291 53.2804L18.1953 53.2836C18.5461 53.565 20.0447 53.5929 20.5337 53.6405C21.2714 53.7124 22.2358 53.7879 22.9717 53.882C24.2659 54.0474 27.8701 54.1626 29.3141 54.1564C29.8634 54.154 30.1371 54.2411 30.5967 54.2476C31.5312 54.2606 32.2145 54.3267 33.1742 54.3284C33.6605 54.3284 33.8505 54.4232 34.3806 54.4198C34.795 54.417 35.3389 54.385 35.7383 54.4232C36.5605 54.5017 37.457 54.511 38.3907 54.5047C38.9208 54.5013 39.1106 54.5955 39.5974 54.5963L42.2492 54.5912C42.776 54.5886 42.9837 54.6853 43.5322 54.6817C44.8611 54.6729 47.6659 54.5697 48.8284 54.68C49.6847 54.7613 49.5684 56.0153 51.2675 57.9762C51.7295 58.5095 52.1908 58.9189 52.7467 59.3256C54.6824 60.7441 57.7399 59.651 59.3954 58.5822C61.0616 57.5065 61.7106 56.5858 62.9793 55.0363C63.5515 54.3374 64.5653 54.6073 65.3215 54.5968C65.7815 54.5901 66.0548 54.5032 66.6044 54.5056C67.4712 54.5092 68.534 54.5592 69.2726 54.4425C70.1386 54.3055 71.0916 54.5148 71.9313 54.3681L75.8332 54.2446C76.3872 54.248 76.6216 54.1545 77.1158 54.1538C78.9727 54.1508 80.5731 54.0627 82.415 54.0714L91.4185 53.5502C91.9384 53.5011 92.4339 53.7817 92.5492 53.2836H64.1837C64.2765 52.8248 64.5375 52.547 64.7138 52.1495C64.9 51.73 65.0707 51.411 65.2686 50.9563C65.4524 50.5339 65.5614 50.1853 65.747 49.7626C66.5217 48 67.4185 45.0888 67.8299 43.1744C68.4917 40.0948 69.0416 37.2047 69.1761 33.9904C69.1924 33.6064 69.2434 33.6257 69.2542 33.2074C69.2621 32.8986 69.2339 32.5541 69.2558 32.2488C69.3705 30.6455 69.2908 28.6607 69.18 27.0888C69.1597 26.81 69.1917 26.5052 69.1721 26.2252C68.9747 23.4204 68.5725 20.6482 67.7494 18.002C67.4919 17.1738 67.0641 16.3878 66.7059 15.627C65.9744 14.073 64.9945 12.8675 63.6883 11.9511C61.1526 10.1708 57.4088 11.9382 55.2364 13.7986C54.8996 14.0869 54.8092 14.2491 54.5201 14.5433L53.4236 15.7231C51.1817 18.1639 49.0253 20.7169 46.8432 23.2306L45.5196 24.8452C45.0473 25.3904 44.6307 25.8726 44.1576 26.4159L43.1758 27.6397C43.0362 27.8078 42.9391 27.9097 42.7961 28.0745C42.3347 28.6068 41.8747 29.095 41.4385 29.651L38.0683 33.7051C37.8335 33.9749 37.4967 34.2096 37.4063 34.5998" fill="#191919"/>
<path fill-rule="evenodd" clip-rule="evenodd" d="M68.4961 50.6641C68.4961 51.006 68.7775 51.275 69.1011 51.275C71.7353 51.275 78.1356 51.4478 80.5016 50.9886C82.5611 50.5888 84.1128 49.7799 85.3969 47.8211C86.4569 46.2042 86.7748 44.3949 85.944 42.4856C85.6281 41.7595 85.3398 41.5847 84.9848 40.9736C85.1122 40.7732 85.463 40.5502 85.7598 40.2093C86.1199 39.796 86.1408 39.9161 86.4668 39.3666C87.0386 38.4013 87.3296 38.0763 87.3296 36.5212C87.3296 35.5738 86.8682 34.4573 86.2919 33.7906C85.0172 32.3155 82.4794 32.3307 80.598 32.3307L75.6812 32.2432C75.0816 32.2406 74.792 32.3355 74.2459 32.3329C72.5112 32.3247 71.9597 32.0671 71.7763 33.0622C71.1803 36.2938 70.3984 40.0515 69.8513 43.2366L68.7293 49.1001C68.6503 49.5583 68.4961 50.1832 68.4961 50.6645M75.4556 39.3149C75.4933 38.7911 75.7241 37.7153 75.8832 37.2771C76.1195 36.6265 76.7379 36.5214 77.498 36.5214C78.2143 36.5214 81.721 36.3419 82.2136 36.8406C82.6456 37.2782 82.6411 38.4494 81.6353 39.0268C80.9512 39.4189 80.7133 39.3151 79.767 39.3151L75.4556 39.3149ZM77.498 47.4339H74.3961C74.1653 47.4339 74.0907 47.35 73.9422 47.2593C73.9544 46.6231 74.3766 45.0221 74.5148 44.1662C74.5744 43.7986 74.5997 43.3297 74.9256 43.3297H80.0691C82.6004 43.3297 81.8049 45.9938 80.4655 46.93C79.8122 47.388 78.5383 47.4339 77.4973 47.4339H77.498Z" fill="#191919"/>
<path fill-rule="evenodd" clip-rule="evenodd" d="M18.8756 32.8544C18.8756 32.4321 18.6363 32.1558 18.2703 32.1558C13.6757 32.1558 14.0913 31.6957 13.7004 33.9529C13.1736 36.9998 12.4036 40.3647 11.897 43.3081C11.6336 44.843 11.4289 46.1451 10.0877 46.9816C9.1242 47.5822 6.48514 47.8578 5.6424 46.9923L5.42883 46.715C4.6876 45.5711 5.25517 44.0865 5.55547 42.3619C5.79093 41.0106 7.30235 33.7514 7.30235 32.9415C7.30235 32.5339 7.3755 32.1558 6.62151 32.1558H2.99098C2.44388 32.1558 2.39828 32.7444 2.30386 33.2834L1.35879 38.2169C1.24147 38.8197 1.1981 39.3059 1.07024 39.8919L0.125376 44.8254C-0.0434151 45.9194 -0.075836 47.378 0.243915 48.2478C1.10226 50.5837 2.79443 50.9005 4.47363 51.3977C5.17027 51.6041 6.86041 51.8495 7.54834 51.7381C7.91206 51.6792 8.2073 51.7351 9.08509 51.588C9.68853 51.4861 9.99085 51.3857 10.5365 51.2551C12.6034 50.7602 14.7002 49.4501 15.8191 47.3124C16.4371 46.1326 16.7583 44.2021 17.0282 42.7714C17.1423 42.1674 17.2254 41.7283 17.3305 41.1122L18.8756 32.8544Z" fill="#191919"/>
<path fill-rule="evenodd" clip-rule="evenodd" d="M92.625 50.4895C92.625 51.0472 92.8359 51.275 93.3814 51.275H95.7263C97.4128 51.275 97.2663 50.4536 97.5844 48.4436C97.7801 47.2046 98.5264 45.7893 99.5839 45.6879L101.118 50.2029C101.28 50.6791 101.474 51.2754 102.004 51.2754H105.56C107.018 51.2754 105.995 49.5148 105.344 47.6836C105.207 47.3003 105.11 47.1231 104.983 46.7029C104.025 43.5437 102.896 42.8453 104.121 41.9335C104.377 41.7432 104.568 41.5675 104.824 41.3473L107.624 38.9918C107.992 38.6739 108.888 38.0111 108.888 37.6566C108.888 37.2827 108.754 37.0905 108.456 37.0191L104.728 36.9581C104.384 36.9581 104.068 37.0643 103.789 37.1838C103.417 37.3427 103.327 37.5124 103.064 37.7449C102.682 38.0826 99.3856 41.134 99.0547 41.2359C99.0547 40.7775 99.1347 40.5362 99.1996 40.1812L100.568 32.8552C100.568 32.4328 100.328 32.1566 99.9623 32.1566C95.4916 32.1566 96.121 31.752 95.7216 33.9843C95.181 37.0045 94.443 40.2975 93.9182 43.3385C93.705 44.571 92.626 49.6274 92.626 50.4899" fill="#191919"/>
<path fill-rule="evenodd" clip-rule="evenodd" d="M48.3755 41.5842C48.3755 42.0235 48.8183 42.1953 49.2077 42.1953C49.7698 42.1953 52.078 42.3135 52.4419 42.0868C52.6265 41.9718 52.5609 42.0237 52.6648 41.821C52.9722 41.2249 53.1242 40.5876 54.0942 40.2406C54.6429 40.0441 55.0861 40.001 55.6508 40.0834C56.4785 40.2041 56.9983 40.2245 56.9983 40.8858C56.9983 41.9293 54.8707 42.0012 53.9953 42.1342C52.8105 42.3146 51.5542 42.4804 50.4493 42.842C49.3992 43.1852 48.6209 43.7607 47.9014 44.6157C46.8617 45.8513 45.8404 49.3234 48.0457 50.6953C48.3235 50.8682 48.3496 50.8929 48.6647 51.0284C50.0144 51.6076 52.5064 51.5748 53.9071 51.1108C55.9614 50.4306 55.9387 51.4491 56.9231 51.4491C60.041 51.4491 59.7524 51.9424 60.4345 47.9937L61.2339 43.7655C61.7502 41.3416 62.3108 38.7657 59.875 37.3914C58.8935 36.8373 57.2734 36.5205 55.8642 36.5205C53.279 36.5205 49.858 37.3875 48.7545 40.2743C48.643 40.5662 48.3757 41.2166 48.3757 41.5827M52.8387 48.1303L51.8808 47.9263C51.5473 47.7668 51.4657 47.4973 51.5289 47.149C51.6543 46.4587 52.0709 46.0814 52.6413 45.8948C53.815 45.5109 55.1266 45.3079 56.318 44.9875C56.2078 46.5151 54.4344 48.1318 52.8385 48.1318L52.8387 48.1303Z" fill="#191919"/>
<path fill-rule="evenodd" clip-rule="evenodd" d="M112.594 51.7108C113.941 51.7108 115.767 51.4717 116.955 50.8099C118.186 50.1235 118.125 50.1879 119.167 49.1722C119.751 48.6032 121.503 46.474 119.704 46.474H116.678C115.466 46.474 116.204 47.5566 113.75 47.9878C112.715 48.1697 111.232 47.6057 111.232 45.95C111.232 45.2966 113.234 45.5135 114.031 45.5135C115.007 45.5135 119.911 45.5798 120.444 45.4946C121.613 45.3076 121.519 43.8147 121.519 42.458C121.519 38.8114 119.473 36.6087 116.149 36.6087C114.305 36.6087 113.921 36.5751 112.097 37.1692C110.942 37.5453 109.817 38.4562 108.944 39.3786L107.813 41.0412C106.895 42.7218 106.602 44.6281 106.693 46.5628C106.84 49.7139 108.574 50.9436 111.025 51.5152C111.531 51.6334 112.013 51.7108 112.595 51.7108M116.982 42.1952C115.782 42.5169 113.443 42.2825 112.216 42.2825C112.326 41.8106 112.828 41.2941 113.168 41.0232C115.335 39.2943 117.382 41.1579 116.981 42.1952H116.982Z" fill="#191919"/>
<path fill-rule="evenodd" clip-rule="evenodd" d="M23.9438 46.5605C23.9438 48.3719 24.2345 49.6117 25.6586 50.5178C27.69 51.8102 30.615 51.7668 32.6869 50.8022C33.297 50.5182 34.1053 50.0641 34.5875 49.5914L35.0554 49.0834C36.2574 47.6377 36.5452 46.0871 36.8846 44.1233C37.4169 41.0444 37.7429 41.497 33.4745 41.497C32.8003 41.497 32.8129 42.4528 32.7092 43.1454C32.6133 43.7855 32.4129 44.5648 32.2794 45.1812C32.0996 46.0122 31.9754 46.702 31.2806 47.1712C30.4296 47.7449 28.6334 48.0465 28.6334 46.2986C28.6334 44.9901 29.0979 43.3127 29.3224 42.03C29.4255 41.4382 29.4624 40.4687 29.9487 40.3084L36.2746 40.2765C37.1089 40.282 37.4787 40.2321 37.7372 39.5201C37.9241 39.0053 38.0896 37.9667 38.0896 37.3076C38.0896 36.6718 37.0868 36.7835 36.5012 36.7838H30.2987C30.4046 36.5287 30.8281 34.2432 30.8281 33.7282C30.8281 33.0847 29.8735 33.2263 29.3129 33.2074L27.4244 33.1173C26.0128 33.1173 26.285 33.9712 25.9281 35.7557L24.5547 42.9009C24.4443 43.5144 24.3132 44.0377 24.2027 44.6772C24.1036 45.2486 23.9434 45.9963 23.9434 46.5605" fill="#191919"/>
<path fill-rule="evenodd" clip-rule="evenodd" d="M17.1357 50.3142C17.1357 51.3824 18.5384 51.0999 19.7075 51.0999C20.7178 51.0999 21.4131 51.0948 21.7207 50.193C21.9742 49.4498 22.1148 48.3764 22.2603 47.586L23.2574 42.1885C23.4179 41.2627 23.5683 40.3914 23.7235 39.4969L24.6831 34.057C24.7547 33.7001 24.9236 33.0356 24.8906 32.6964C24.8156 31.9204 23.6795 32.1553 22.5818 32.1555C20.4202 32.1555 20.5296 31.5763 20.0927 34.0843L17.369 48.9245C17.3041 49.3018 17.1357 49.9706 17.1357 50.3142Z" fill="#191919"/>
<path fill-rule="evenodd" clip-rule="evenodd" d="M37.1045 50.4015C37.1045 51.5062 38.8293 51.0069 39.4493 51.0069C40.0836 51.0069 41.2369 51.4127 41.5984 50.6995C41.7143 50.4704 41.7638 50.124 41.8144 49.814C41.9158 49.1986 42.0005 48.5674 42.1419 47.9219C42.4136 46.6795 42.6148 45.4809 42.8835 44.2383C43.1785 42.873 43.4484 42.0504 44.3797 41.4258C45.6109 40.601 47.0073 41.0611 47.6942 41.0611C48.2867 40.0399 47.8765 40.2855 48.2753 39.2001C49.1746 36.758 49.3695 36.7834 47.2403 36.7834C45.3015 36.7834 44.5471 37.9035 43.9147 37.4854C43.5161 37.2218 43.5881 36.7834 43.0801 36.7834C39.328 36.7834 39.7026 36.396 39.38 38.1875L38.3833 43.4101C38.1825 44.5577 37.1045 49.7675 37.1045 50.4028" fill="#191919"/>
<path fill-rule="evenodd" clip-rule="evenodd" d="M86.2705 50.4891C86.2705 50.8447 86.3299 51.2746 86.8758 51.2746H90.3551C90.7869 51.2746 90.8937 50.4595 90.9792 49.9876C91.2629 48.4196 93.2295 38.6961 93.2295 37.9183C93.2295 36.6624 92.7559 37.0453 90.5065 37.0453C88.237 37.0453 89.0587 36.2542 88.0401 40.9211L86.5917 48.5032C86.5337 48.8374 86.4934 49.1897 86.4385 49.4614C86.3623 49.8407 86.2705 50.0457 86.2705 50.4897" fill="#191919"/>
<path fill-rule="evenodd" clip-rule="evenodd" d="M39.9039 6.48905C40.7144 6.48905 41.9555 5.04932 43.2323 4.39403L45.416 3.42234C48.8705 2.09394 52.7227 1.63555 56.3619 2.33482L59.3341 3.09437C60.0194 3.34941 64.4868 4.87965 64.4868 5.61539C64.4868 6.46224 63.6548 6.68167 63.6548 7.62311C63.6548 8.60874 66.4535 6.78978 66.4535 5.70269C66.4535 4.23594 63.1758 2.86292 62.0388 2.41698L58.3447 1.09351C57.6987 0.888664 57.0401 0.763182 56.3615 0.588793C53.7444 -0.0836651 48.236 -0.301168 45.6029 0.581929C44.0574 1.10016 42.7883 1.52573 41.4167 2.64735C40.4745 3.41848 39.9699 3.92062 39.5225 5.08793C39.4415 5.29793 39.2848 5.64564 39.3304 5.93242C39.3833 6.26511 39.5764 6.48841 39.9039 6.48841" fill="#191919"/>
<path fill-rule="evenodd" clip-rule="evenodd" d="M126.738 51.5363C126.738 51.8454 126.859 52.2785 126.975 52.4852C127.873 54.0824 131.785 54.683 133.137 50.9769C133.319 50.4794 133.47 49.8334 133.47 49.1791C133.47 48.6201 132.36 48.7426 131.882 48.7426C130.94 48.7426 131.087 50.3095 130.871 50.8934C130.515 51.8542 129.234 52.1879 129.234 50.9252C129.234 50.5704 129.35 50.3162 129.418 49.9147C129.798 47.6624 129.857 47.8398 132.942 47.8709C133.298 47.8743 133.667 47.9185 133.833 47.6778C133.93 47.5384 133.995 46.7924 134 46.5603C133.519 46.1886 133.47 46.2971 132.714 46.2984C130.362 46.3018 130.086 46.5987 130.248 45.5511C130.435 44.3469 129.968 44.5524 128.478 44.5524C127.83 44.5524 127.889 45.278 127.752 45.8973L126.738 51.5363Z" fill="#191919"/>
<path fill-rule="evenodd" clip-rule="evenodd" d="M123.335 52.5843C123.335 53.5734 123.979 53.3703 125.15 53.3703C125.836 53.3703 125.88 52.3576 126.014 51.5736C126.255 50.1736 127.268 45.5492 127.268 44.5528C127.268 43.7806 126.387 43.9417 125.68 43.9417C124.742 43.9417 124.875 44.7632 124.698 45.6024L123.335 52.5843Z" fill="#191919"/>
<path fill-rule="evenodd" clip-rule="evenodd" d="M90.1283 36.2594C93.2444 36.2594 93.5749 36.6455 93.8958 35.0205C94.0612 34.1839 94.65 32.1562 93.6835 32.1562H90.7332C89.6915 32.1562 89.5687 32.7656 89.3397 34.1271C89.1419 35.3025 88.6479 36.2594 90.1281 36.2594" fill="#191919"/>
<path fill-rule="evenodd" clip-rule="evenodd" d="M39.9033 34.7743C40.406 34.8972 41.4595 34.0171 41.8998 33.6739L49.0024 28.6018C49.339 28.2157 49.5852 27.5611 49.5852 26.8301C49.3795 26.8944 49.1611 27.0918 48.9554 27.2376C48.7092 27.4127 48.5759 27.5594 48.3437 27.7539C48.1161 27.9444 47.9702 28.0113 47.7478 28.2012L45.2874 30.1643C45.0605 30.3342 44.8919 30.5019 44.6688 30.6724L40.3777 34.1006C40.1191 34.3189 39.9333 34.358 39.9033 34.7752" fill="#191919"/>
<path fill-rule="evenodd" clip-rule="evenodd" d="M120.385 53.0203C120.385 53.5411 121.745 53.3697 122.351 53.3697C123.042 53.3697 123.123 52.0998 122.957 51.2742C122.441 51.1359 120.983 50.8991 120.684 51.4458C120.612 51.5784 120.385 52.7714 120.385 53.0205" fill="#191919"/>
</g>
<defs>
<clipPath id="clip0_25_1233">
<rect width="134" height="60" fill="white"/>
</clipPath>
</defs>
</svg>
